<svg xmlns="http://www.w3.org/2000/svg"  viewBox="0 0 100 100" width="100px" height="100px"><path fill="#c7ede6" d="M87.215,56.71C88.35,54.555,89,52.105,89,49.5c0-6.621-4.159-12.257-10.001-14.478 C78.999,35.015,79,35.008,79,35c0-11.598-9.402-21-21-21c-9.784,0-17.981,6.701-20.313,15.757C36.211,29.272,34.638,29,33,29 c-7.692,0-14.023,5.793-14.89,13.252C12.906,43.353,9,47.969,9,53.5C9,59.851,14.149,65,20.5,65c0.177,0,0.352-0.012,0.526-0.022 C21.022,65.153,21,65.324,21,65.5C21,76.822,30.178,86,41.5,86c6.437,0,12.175-2.972,15.934-7.614C59.612,80.611,62.64,82,66,82 c4.65,0,8.674-2.65,10.666-6.518C77.718,75.817,78.837,76,80,76c6.075,0,11-4.925,11-11C91,61.689,89.53,58.727,87.215,56.71z"/><path fill="#fdfcef" d="M79.875,60.5c0,0,3.64,0,6.125,0s4.5-2.015,4.5-4.5c0-2.333-1.782-4.229-4.055-4.455 C86.467,51.364,86.5,51.187,86.5,51c0-2.485-2.015-4.5-4.5-4.5c-1.438,0-2.703,0.686-3.527,1.736 C78.333,45.6,76.171,43.5,73.5,43.5c-2.761,0-5,2.239-5,5c0,0.446,0.077,0.87,0.187,1.282C68.045,49.005,67.086,48.5,66,48.5 c-1.781,0-3.234,1.335-3.455,3.055C62.364,51.533,62.187,51.5,62,51.5c-2.485,0-4.5,2.015-4.5,4.5s2.015,4.5,4.5,4.5s9.5,0,9.5,0 h5.375V61h3V60.5z"/><path fill="#472b29" d="M73.5,43c-3.033,0-5.5,2.467-5.5,5.5c0,0.016,0,0.031,0,0.047C67.398,48.192,66.71,48,66,48 c-1.831,0-3.411,1.261-3.858,3.005C62.095,51.002,62.048,51,62,51c-2.757,0-5,2.243-5,5s2.243,5,5,5h14.875 c0.276,0,0.5-0.224,0.5-0.5s-0.224-0.5-0.5-0.5H62c-2.206,0-4-1.794-4-4s1.794-4,4-4c0.117,0,0.23,0.017,0.343,0.032l0.141,0.019 c0.021,0.003,0.041,0.004,0.062,0.004c0.246,0,0.462-0.185,0.495-0.437C63.232,50.125,64.504,49,66,49 c0.885,0,1.723,0.401,2.301,1.1c0.098,0.118,0.241,0.182,0.386,0.182c0.078,0,0.156-0.018,0.228-0.056 c0.209-0.107,0.314-0.346,0.254-0.573C69.054,49.218,69,48.852,69,48.5c0-2.481,2.019-4.5,4.5-4.5 c2.381,0,4.347,1.872,4.474,4.263c0.011,0.208,0.15,0.387,0.349,0.45c0.05,0.016,0.101,0.024,0.152,0.024 c0.15,0,0.296-0.069,0.392-0.192C79.638,47.563,80.779,47,82,47c2.206,0,4,1.794,4,4c0,0.117-0.017,0.23-0.032,0.343l-0.019,0.141 c-0.016,0.134,0.022,0.268,0.106,0.373c0.084,0.105,0.207,0.172,0.34,0.185C88.451,52.247,90,53.949,90,56c0,2.206-1.794,4-4,4 h-6.125c-0.276,0-0.5,0.224-0.5,0.5s0.224,0.5,0.5,0.5H86c2.757,0,5-2.243,5-5c0-2.397-1.689-4.413-4.003-4.877 C86.999,51.082,87,51.041,87,51c0-2.757-2.243-5-5-5c-1.176,0-2.293,0.416-3.183,1.164C78.219,44.76,76.055,43,73.5,43L73.5,43z"/><path fill="#472b29" d="M72 50c-1.403 0-2.609.999-2.913 2.341C68.72 52.119 68.301 52 67.875 52c-1.202 0-2.198.897-2.353 2.068C65.319 54.022 65.126 54 64.938 54c-1.529 0-2.811 1.2-2.918 2.732C62.01 56.87 62.114 56.99 62.251 57c.006 0 .012 0 .018 0 .13 0 .24-.101.249-.232.089-1.271 1.151-2.268 2.419-2.268.229 0 .47.042.738.127.022.007.045.01.067.01.055 0 .11-.02.156-.054C65.962 54.537 66 54.455 66 54.375c0-1.034.841-1.875 1.875-1.875.447 0 .885.168 1.231.473.047.041.106.063.165.063.032 0 .063-.006.093-.019.088-.035.148-.117.155-.212C69.623 51.512 70.712 50.5 72 50.5c.208 0 .425.034.682.107.023.007.047.01.07.01.109 0 .207-.073.239-.182.038-.133-.039-.271-.172-.309C72.517 50.04 72.256 50 72 50L72 50zM85.883 51.5c-1.326 0-2.508.897-2.874 2.182-.038.133.039.271.172.309C83.205 53.997 83.228 54 83.25 54c.109 0 .209-.072.24-.182C83.795 52.748 84.779 52 85.883 52c.117 0 .23.014.342.029.012.002.023.003.035.003.121 0 .229-.092.246-.217.019-.137-.077-.263-.214-.281C86.158 51.516 86.022 51.5 85.883 51.5L85.883 51.5z"/><path fill="#fff" d="M15.405 51H5.5C5.224 51 5 50.776 5 50.5S5.224 50 5.5 50h9.905c.276 0 .5.224.5.5S15.682 51 15.405 51zM18.5 51h-1c-.276 0-.5-.224-.5-.5s.224-.5.5-.5h1c.276 0 .5.224.5.5S18.777 51 18.5 51zM23.491 53H14.5c-.276 0-.5-.224-.5-.5s.224-.5.5-.5h8.991c.276 0 .5.224.5.5S23.767 53 23.491 53zM12.5 53h-1c-.276 0-.5-.224-.5-.5s.224-.5.5-.5h1c.276 0 .5.224.5.5S12.777 53 12.5 53zM9.5 53h-2C7.224 53 7 52.776 7 52.5S7.224 52 7.5 52h2c.276 0 .5.224.5.5S9.777 53 9.5 53zM15.5 55h-2c-.276 0-.5-.224-.5-.5s.224-.5.5-.5h2c.276 0 .5.224.5.5S15.776 55 15.5 55zM18.5 46c-.177 0-.823 0-1 0-.276 0-.5.224-.5.5 0 .276.224.5.5.5.177 0 .823 0 1 0 .276 0 .5-.224.5-.5C19 46.224 18.776 46 18.5 46zM18.5 48c-.177 0-4.823 0-5 0-.276 0-.5.224-.5.5 0 .276.224.5.5.5.177 0 4.823 0 5 0 .276 0 .5-.224.5-.5C19 48.224 18.776 48 18.5 48zM23.5 50c-.177 0-2.823 0-3 0-.276 0-.5.224-.5.5 0 .276.224.5.5.5.177 0 2.823 0 3 0 .276 0 .5-.224.5-.5C24 50.224 23.776 50 23.5 50z"/><g><path fill="#fff" d="M72.5 24h-10c-.276 0-.5-.224-.5-.5s.224-.5.5-.5h10c.276 0 .5.224.5.5S72.776 24 72.5 24zM76.5 24h-2c-.276 0-.5-.224-.5-.5s.224-.5.5-.5h2c.276 0 .5.224.5.5S76.776 24 76.5 24zM81.5 26h-10c-.276 0-.5-.224-.5-.5s.224-.5.5-.5h10c.276 0 .5.224.5.5S81.777 26 81.5 26zM69.5 26h-1c-.276 0-.5-.224-.5-.5s.224-.5.5-.5h1c.276 0 .5.224.5.5S69.776 26 69.5 26zM66.375 26H64.5c-.276 0-.5-.224-.5-.5s.224-.5.5-.5h1.875c.276 0 .5.224.5.5S66.651 26 66.375 26zM75.5 22h-5c-.276 0-.5-.224-.5-.5s.224-.5.5-.5h5c.276 0 .5.224.5.5S75.777 22 75.5 22zM72.5 28h-2c-.276 0-.5-.224-.5-.5s.224-.5.5-.5h2c.276 0 .5.224.5.5S72.776 28 72.5 28z"/></g><g><path fill="#67ba8c" d="M37,71.3c-4.025,0-7.3-3.274-7.3-7.3V36c0-4.025,3.274-7.3,7.3-7.3h28c4.025,0,7.3,3.274,7.3,7.3 v28c0,4.025-3.274,7.3-7.3,7.3H37z"/><path fill="#472b29" d="M65,29.4c3.639,0,6.6,2.961,6.6,6.6v28c0,3.639-2.961,6.6-6.6,6.6H37c-3.639,0-6.6-2.961-6.6-6.6 V36c0-3.639,2.961-6.6,6.6-6.6H65 M65,28H37c-4.418,0-8,3.582-8,8v28c0,4.418,3.582,8,8,8h28c4.418,0,8-3.582,8-8V36 C73,31.582,69.418,28,65,28L65,28z"/></g><g><path fill="#67ba8c" d="M68.422,47.932l0.006,1.649l0.052,13.543c0.009,2.332-1.892,4.247-4.223,4.256l-26.38,0.1 c-2.332,0.009-4.247-1.892-4.256-4.223l-0.1-26.38c-0.009-2.332,1.892-4.247,4.223-4.256L61.65,32.53l2.473-0.009 c2.332-0.009,4.247,1.892,4.256,4.223l0.012,3.18l0.007,1.884l0.004,0.942l0.004,1.06l0.01,2.709L68.422,47.932"/></g><g><path fill="#fdfcef" d="M36.5,73.5c0,0,1.567,0,3.5,0s3.5-1.567,3.5-3.5c0-1.781-1.335-3.234-3.055-3.455 C40.473,66.366,40.5,66.187,40.5,66c0-1.933-1.567-3.5-3.5-3.5c-1.032,0-1.95,0.455-2.59,1.165 c-0.384-1.808-1.987-3.165-3.91-3.165c-2.209,0-4,1.791-4,4c0,0.191,0.03,0.374,0.056,0.558C26.128,64.714,25.592,64.5,25,64.5 c-1.228,0-2.245,0.887-2.455,2.055C22.366,66.527,22.187,66.5,22,66.5c-1.933,0-3.5,1.567-3.5,3.5s1.567,3.5,3.5,3.5s7.5,0,7.5,0 V74h7V73.5z"/><path fill="#472b29" d="M38.25 69C38.112 69 38 68.888 38 68.75c0-1.223.995-2.218 2.218-2.218.034.009.737-.001 1.244.136.133.036.212.173.176.306-.036.134-.173.213-.306.176-.444-.12-1.1-.12-1.113-.118-.948 0-1.719.771-1.719 1.718C38.5 68.888 38.388 69 38.25 69zM31.5 73A.5.5 0 1 0 31.5 74 .5.5 0 1 0 31.5 73z"/><path fill="#472b29" d="M40,74h-3.5c-0.276,0-0.5-0.224-0.5-0.5s0.224-0.5,0.5-0.5H40c1.654,0,3-1.346,3-3 c0-1.496-1.125-2.768-2.618-2.959c-0.134-0.018-0.255-0.088-0.336-0.196s-0.115-0.244-0.094-0.377C39.975,66.314,40,66.16,40,66 c0-1.654-1.346-3-3-3c-0.85,0-1.638,0.355-2.219,1c-0.125,0.139-0.321,0.198-0.5,0.148c-0.182-0.049-0.321-0.195-0.36-0.379 C33.58,62.165,32.141,61,30.5,61c-1.93,0-3.5,1.57-3.5,3.5c0,0.143,0.021,0.28,0.041,0.418c0.029,0.203-0.063,0.438-0.242,0.54 c-0.179,0.102-0.396,0.118-0.556-0.01C25.878,65.155,25.449,65,25,65c-0.966,0-1.792,0.691-1.963,1.644 c-0.048,0.267-0.296,0.446-0.569,0.405C22.314,67.025,22.16,67,22,67c-1.654,0-3,1.346-3,3s1.346,3,3,3h7.5 c0.276,0,0.5,0.224,0.5,0.5S29.776,74,29.5,74H22c-2.206,0-4-1.794-4-4s1.794-4,4-4c0.059,0,0.116,0.002,0.174,0.006 C22.588,64.82,23.711,64,25,64c0.349,0,0.689,0.061,1.011,0.18C26.176,61.847,28.126,60,30.5,60c1.831,0,3.466,1.127,4.153,2.774 C35.333,62.276,36.155,62,37,62c2.206,0,4,1.794,4,4c0,0.048-0.001,0.095-0.004,0.142C42.739,66.59,44,68.169,44,70 C44,72.206,42.206,74,40,74z"/><path fill="#472b29" d="M34.5,73c-0.159,0-0.841,0-1,0c-0.276,0-0.5,0.224-0.5,0.5c0,0.276,0.224,0.5,0.5,0.5 c0.159,0,0.841,0,1,0c0.276,0,0.5-0.224,0.5-0.5C35,73.224,34.776,73,34.5,73z"/></g><g><path fill="#fff" d="M68,48.753c0-7.489-7.609-13.577-16.961-13.577c-9.358,0-16.966,6.088-16.966,13.577 c0,6.711,6.036,12.33,14.186,13.392c0.551,0.12,1.304,0.364,1.496,0.828c0.172,0.424,0.111,1.082,0.056,1.511 c0,0-0.202,1.182-0.243,1.431c-0.076,0.424-0.344,1.655,1.466,0.902c1.81-0.748,9.772-5.669,13.331-9.713H64.36 C66.822,54.447,68,51.749,68,48.753z"/></g><g><path fill="#472b29" d="M42.404,37.398c-0.187,0-0.366-0.104-0.452-0.285c-0.119-0.249-0.013-0.547,0.236-0.666 c0.887-0.423,1.825-0.784,2.789-1.072c0.264-0.08,0.543,0.07,0.623,0.335s-0.071,0.543-0.335,0.622 c-0.915,0.274-1.805,0.617-2.646,1.018C42.549,37.383,42.476,37.398,42.404,37.398z"/></g><g><path fill="#472b29" d="M62.774,59.169c-0.134,0-0.268-0.054-0.366-0.159c-0.188-0.202-0.177-0.519,0.026-0.707 c0.342-0.318,0.659-0.628,0.947-0.926l0.609-0.666c2.394-2.598,3.509-5.159,3.509-8.06c0-7.252-7.388-13.151-16.468-13.151 c-1.075,0-2.148,0.083-3.189,0.248c-0.272,0.043-0.529-0.145-0.572-0.416c-0.043-0.272,0.143-0.529,0.416-0.572 c1.093-0.172,2.218-0.26,3.345-0.26c9.632,0,17.468,6.349,17.468,14.151c0,2.809-0.998,5.401-3.044,7.898h0.005l-0.102,0.117 c-0.166,0.198-0.337,0.396-0.516,0.594l-0.104,0.118c-0.453,0.518-1,1.074-1.625,1.656C63.019,59.125,62.896,59.169,62.774,59.169z"/></g><g><path fill="#472b29" d="M58.572,62.563c-0.156,0-0.309-0.072-0.407-0.209c-0.161-0.224-0.109-0.536,0.115-0.697 c0.979-0.701,1.872-1.388,2.655-2.04c0.212-0.177,0.528-0.147,0.704,0.064c0.177,0.213,0.148,0.528-0.064,0.705 c-0.802,0.667-1.714,1.368-2.711,2.083C58.775,62.532,58.673,62.563,58.572,62.563z"/></g><g><path fill="#472b29" d="M50.088,67.554c-0.283,0-0.517-0.075-0.704-0.225c-0.515-0.414-0.38-1.157-0.323-1.475 c0.045-0.277,0.248-1.469,0.248-1.469c0.075-0.589,0.068-1.016-0.026-1.248c-0.046-0.113-0.341-0.357-1.14-0.531 c-8.434-1.104-14.585-6.976-14.585-13.955c0-1.443,0.269-2.869,0.798-4.236c0.1-0.258,0.389-0.385,0.647-0.285 c0.257,0.1,0.385,0.389,0.286,0.646c-0.485,1.252-0.73,2.556-0.73,3.875c0,6.472,5.786,11.927,13.757,12.971 c1.052,0.228,1.676,0.607,1.894,1.138c0.216,0.534,0.154,1.269,0.089,1.773c-0.003,0.021-0.205,1.204-0.245,1.455 c-0.072,0.397-0.057,0.526-0.032,0.571c0.002-0.002,0.017-0.001,0.046,0c0.089,0,0.317-0.018,0.767-0.205 c0.774-0.321,2.899-1.543,5.316-3.177c0.25-0.169,0.503-0.343,0.758-0.52c0.225-0.156,0.539-0.101,0.696,0.126 c0.157,0.228,0.101,0.539-0.126,0.696c-0.258,0.179-0.514,0.354-0.768,0.525c-2.498,1.688-4.653,2.924-5.491,3.271 C50.777,67.462,50.402,67.554,50.088,67.554z M50.022,66.562h0.01H50.022z"/></g><g><path fill="#472b29" d="M36.268,42.42c-0.1,0-0.201-0.029-0.288-0.092c-0.226-0.159-0.279-0.472-0.12-0.697 c1.136-1.606,2.628-3,4.437-4.144c0.234-0.146,0.543-0.077,0.69,0.155c0.147,0.233,0.078,0.543-0.156,0.69 c-1.697,1.072-3.095,2.377-4.155,3.876C36.58,42.347,36.425,42.42,36.268,42.42z"/></g><g><path fill="#67ba8c" d="M44.396,53.457h-3.372c-0.49,0-0.885-0.399-0.885-0.89v-6.739c0-0.49,0.394-0.89,0.885-0.89 c0.49,0,0.89,0.399,0.89,0.89v5.849h2.482c0.49,0,0.89,0.399,0.89,0.89S44.886,53.457,44.396,53.457z M47.879,52.567 c0,0.49-0.394,0.89-0.885,0.89s-0.89-0.399-0.89-0.89v-6.739c0-0.49,0.399-0.89,0.89-0.89s0.885,0.399,0.885,0.89V52.567z M55.998,52.567c0,0.384-0.248,0.723-0.612,0.844c-0.091,0.03-0.187,0.046-0.283,0.046c-0.278,0-0.541-0.131-0.708-0.354 l-3.453-4.707v4.171c0,0.49-0.399,0.89-0.895,0.89c-0.49,0-0.89-0.399-0.89-0.89v-6.739c0-0.384,0.248-0.723,0.612-0.844 c0.091-0.03,0.187-0.045,0.278-0.045c0.278,0,0.546,0.131,0.713,0.354l3.458,4.707v-4.171c0-0.49,0.399-0.89,0.89-0.89 s0.89,0.399,0.89,0.89V52.567z M61.448,48.305c0.49,0,0.89,0.399,0.89,0.89s-0.394,0.89-0.89,0.89h-2.477v1.592h2.477 c0.49,0,0.89,0.399,0.89,0.89s-0.399,0.89-0.89,0.89h-3.367c-0.49,0-0.89-0.399-0.89-0.89V49.2c0-0.005,0-0.005,0-0.005v-3.367 c0-0.49,0.399-0.89,0.89-0.89h3.367c0.49,0,0.89,0.399,0.89,0.89c0,0.49-0.394,0.89-0.89,0.89h-2.477v1.592h2.477V48.305z"/><path fill="#472b29" d="M61.448,53.582h-3.367c-0.56,0-1.015-0.455-1.015-1.015v-6.739c0-0.56,0.455-1.015,1.015-1.015 h3.367c0.56,0,1.015,0.455,1.015,1.015s-0.455,1.015-1.015,1.015h-2.353v1.343l2.353-0.006c0.56,0,1.015,0.456,1.015,1.016 s-0.455,1.015-1.015,1.015h-2.353v1.342h2.353c0.56,0,1.015,0.456,1.015,1.016S62.008,53.582,61.448,53.582z M58.081,45.063 c-0.422,0-0.765,0.343-0.765,0.765v6.739c0,0.422,0.343,0.765,0.765,0.765h3.367c0.421,0,0.765-0.343,0.765-0.765 s-0.343-0.766-0.765-0.766h-2.603V49.96h2.603c0.421,0,0.765-0.343,0.765-0.765c0-0.39-0.293-0.713-0.67-0.76h-2.697v-1.843h2.603 c0.421,0,0.765-0.343,0.765-0.765s-0.343-0.765-0.765-0.765H58.081z M55.104,53.582c-0.316,0-0.618-0.151-0.808-0.404l-3.228-4.399 v3.789c0,0.56-0.458,1.015-1.02,1.015c-0.56,0-1.015-0.455-1.015-1.015v-6.739c0-0.438,0.28-0.824,0.697-0.963 c0.407-0.135,0.878,0.015,1.131,0.352l3.233,4.401v-3.79c0-0.56,0.455-1.015,1.015-1.015s1.015,0.455,1.015,1.015v6.739 c0,0.437-0.28,0.823-0.697,0.962C55.322,53.564,55.213,53.582,55.104,53.582z M50.818,48.015l3.678,5.014 c0.193,0.256,0.548,0.362,0.851,0.265c0.315-0.105,0.526-0.396,0.526-0.726v-6.739c0-0.422-0.343-0.765-0.765-0.765 c-0.421,0-0.765,0.343-0.765,0.765v4.552l-3.684-5.014c-0.19-0.253-0.548-0.362-0.851-0.265c-0.314,0.105-0.526,0.396-0.526,0.727 v6.739c0,0.422,0.343,0.765,0.765,0.765c0.425,0,0.77-0.343,0.77-0.765V48.015z M46.994,53.582c-0.56,0-1.015-0.455-1.015-1.015 v-6.739c0-0.56,0.455-1.015,1.015-1.015c0.557,0,1.01,0.455,1.01,1.015v6.739C48.004,53.127,47.551,53.582,46.994,53.582z M46.994,45.063c-0.421,0-0.765,0.343-0.765,0.765v6.739c0,0.422,0.343,0.765,0.765,0.765c0.419,0,0.76-0.343,0.76-0.765v-6.739 C47.754,45.406,47.413,45.063,46.994,45.063z M44.396,53.582h-3.372c-0.557,0-1.01-0.455-1.01-1.015v-6.739 c0-0.56,0.453-1.015,1.01-1.015c0.56,0,1.015,0.455,1.015,1.015v5.724h2.357c0.56,0,1.015,0.456,1.015,1.016 S44.955,53.582,44.396,53.582z M41.024,45.063c-0.419,0-0.76,0.343-0.76,0.765v6.739c0,0.422,0.341,0.765,0.76,0.765h3.372 c0.422,0,0.765-0.343,0.765-0.765s-0.343-0.766-0.765-0.766h-2.607v-5.974C41.789,45.406,41.445,45.063,41.024,45.063z"/></g></svg>