<svg xmlns="http://www.w3.org/2000/svg" version="1.1" xmlns:xlink="http://www.w3.org/1999/xlink" xmlns:svgjs="http://svgjs.dev/svgjs" width="1000" height="1000" viewBox="0 0 1000 1000"><rect width="1000" height="1000" fill="#051726"></rect><g transform="matrix(0.7,0,0,0.7,149.57575757575756,282.1265587044535)"><svg viewBox="0 0 396 247" data-background-color="#051726" preserveAspectRatio="xMidYMid meet" height="623" width="1000" xmlns="http://www.w3.org/2000/svg" xmlns:xlink="http://www.w3.org/1999/xlink"><g id="tight-bounds" transform="matrix(1,0,0,1,0.2400000000000091,-0.09999999999999432)"><svg viewBox="0 0 395.52 247.2" height="247.2" width="395.52"><g><svg></svg></g><g><svg viewBox="0 0 395.52 247.2" height="247.2" width="395.52"><mask id="14d3effb-3662-4060-8e2b-ff8feae24d16"><rect width="640" height="400" fill="white"></rect><rect width="348.05760000000004" height="85.63990021440505" fill="black" y="80.78004989279748" x="23.731199999999973" id="transform-me"></rect></mask><g transform="matrix(1,0,0,1,39.55199999999999,94.51336349289846)"><svg viewBox="0 0 316.416 58.17327301420305" height="58.17327301420305" width="316.416"><g><svg viewBox="0 0 316.416 58.17327301420305" height="58.17327301420305" width="316.416"><g><svg viewBox="0 0 316.416 58.17327301420305" height="58.17327301420305" width="316.416"><g><svg viewBox="0 0 316.416 58.17327301420305" height="58.17327301420305" width="316.416"><g id="textblocktransform"><svg viewBox="0 0 316.416 58.17327301420305" height="58.17327301420305" width="316.416" id="textblock"><g><svg viewBox="0 0 316.416 58.17327301420305" height="58.17327301420305" width="316.416"><g transform="matrix(1,0,0,1,0,0)"><svg width="316.416" viewBox="0 -34.95 190.09 34.95" height="58.17327301420305" data-palette-color="#ffffff"><path d="M28.85-2.15L35.3-2.15 35.3 0 0 0 0-2.15 4.85-2.15 4.85-34.95 18.45-34.95Q22-34.95 24.58-34.1 27.15-33.25 28.4-31.8L28.4-31.8Q30.8-29.1 30.8-25.7L30.8-25.7Q30.8-21.6 28.2-19.6L28.2-19.6Q27.25-18.9 26.9-18.73 26.55-18.55 25.65-18.15L25.65-18.15Q28.9-17.45 30.83-15.23 32.75-13 32.75-9.7L32.75-9.7Q32.75-4.75 28.85-2.15L28.85-2.15ZM10.75-15L10.75-5.45 20-5.45Q23.25-5.45 24.98-6.48 26.7-7.5 26.7-10.35L26.7-10.35Q26.7-15 19.25-15L19.25-15 10.75-15ZM10.75-29.5L10.75-20.45 18.25-20.45Q24.65-20.45 24.65-24.8L24.65-24.8Q24.65-27.3 23.1-28.4 21.55-29.5 18.3-29.5L18.3-29.5 10.75-29.5ZM35.3-2.15L40.15-2.15 40.15-34.95 64.7-34.95 64.7-29.4 46.05-29.4 46.05-20.15 62.8-20.15 62.8-14.9 46.05-14.9 46.05-5.55 65.3-5.55 65.3-2.15 70.15-2.15 70.15 0 35.3 0 35.3-2.15ZM100.8-2.15L105.65-2.15 105.65 0 94.84 0 86.5-11.75 78.75-11.75 78.75 0 68 0 68-2.15 72.84-2.15 72.84-34.95 85.84-34.95Q93.84-34.95 97.3-32.25 100.75-29.55 100.75-23.6L100.75-23.6Q100.75-14.95 93.2-12.7L93.2-12.7 100.8-2.15ZM86.09-17.1Q91.09-17.1 92.9-18.65 94.7-20.2 94.7-23.63 94.7-27.05 92.84-28.33 91-29.6 86.25-29.6L86.25-29.6 78.75-29.6 78.75-17.1 86.09-17.1ZM131.09-2.15L135.94-2.15 135.94 0 104.39 0 104.39-2.15 109.24-2.15 109.24-34.95 115.14-34.95 115.14-5.6 131.09-5.6 131.09-2.15ZM132.69-2.15L137.54-2.15 137.54-34.95 143.44-34.95 143.44-2.15 148.29-2.15 148.29 0 132.69 0 132.69-2.15ZM148.29-2.15L153.14-2.15 153.14-34.95 159.04-34.95 179.34-8.85 179.34-34.95 185.24-34.95 185.24-2.15 190.09-2.15 190.09 0 178.84 0 159.04-25.5 159.04 0 148.29 0 148.29-2.15Z" opacity="1" transform="matrix(1,0,0,1,0,0)" fill="#ffffff" class="wordmark-text-0" data-fill-palette-color="primary" id="text-0"></path></svg></g></svg></g></svg></g></svg></g><g></g></svg></g></svg></g></svg></g><g mask="url(#14d3effb-3662-4060-8e2b-ff8feae24d16)"><g transform="matrix(2.8618113912231555, 0, 0, 2.8618113912231555, 68.57499955399072, 1)"><svg xmlns:x="http://ns.adobe.com/Extensibility/1.0/" xmlns:i="http://ns.adobe.com/AdobeIllustrator/10.0/" xmlns:graph="http://ns.adobe.com/Graphs/1.0/" xmlns="http://www.w3.org/2000/svg" xmlns:xlink="http://www.w3.org/1999/xlink" xmlns:a="http://ns.adobe.com/AdobeSVGViewerExtensions/3.0/" version="1.1" baseProfile="basic" x="0" y="0" viewBox="4.999999999999963 7 90.28198073584075 85.68" xml:space="preserve" height="85.68" width="90.28198073584075" class="icon-none" data-fill-palette-color="accent" id="none"><g fill="#ff0000" data-fill-palette-color="accent"><g fill="#ff0000" data-fill-palette-color="accent"><path fill-rule="evenodd" clip-rule="evenodd" d="M27.8 7c0.08 0 0.16 0 0.24 0 3.782 8.218 8.224 15.776 12 24 6.381-0.5 13.83 0.07 20.16-0.48C64.254 22.813 68.174 14.973 71.96 7c0.08 0 0.16 0 0.24 0 7.237 17.172 21.862 33.197 23.04 56.16 0.241 4.696-0.587 8.264-1.68 12.24-4.015 0.306-9.261-0.621-12.48 0.479 1.035 1.296 3.424 0.721 5.521 0.721 2.093 0 4.413 0 6.239 0-0.838 2.361-2.18 4.22-3.84 5.76-3.039-0.208-6.306-2.591-8.88-1.681 1.859 1.661 5.277 1.764 7.92 2.641-1.594 1.446-3.442 2.638-5.52 3.6-1.924-0.636-2.944-2.176-5.04-2.64-0.549 1.868 2.394 1.999 3.359 3.12-8.327 4.393-19.208 1.431-24-5.04-0.794-1.073-1.03-2.364-1.439-3.36-2.436 3.593-5.646 6.279-10.32 8.641-6.24 3.151-11.692 4.345-18.96 1.199 2.201-1.959 5.494-2.825 7.44-5.04-2.929-0.438-6.17 3.498-9.36 4.561-2.765-1.155-5.445-2.395-7.92-3.84 4.169-2.231 10.464-2.337 14.4-4.801-0.732-1.116-2.44-0.08-3.6 0.24-3.561 0.982-8.259 2.354-12 3.36-3.046-1.754-5.072-4.528-6.96-7.44 6.196-0.872 14.938 0.549 21.12-0.72-0.593-1.306-3.322-0.72-5.04-0.72-5.187 0-11.452 0-16.8 0-1.154-2.446-1.785-5.415-2.4-8.4 0-2.32 0-4.64 0-6.96C8.612 37.732 20.173 24.333 27.8 7zM15.08 35.32c5.439-3.361 12.757-4.843 21.36-5.04-2.758-7.242-5.683-14.318-9.12-20.88C23.27 18.07 18.997 26.517 15.08 35.32zM63.08 30.28c8.713 0.007 16.575 2.145 21.6 5.04-4.483-8.396-8.175-17.584-12.72-25.92C68.947 16.149 65.377 23.614 63.08 30.28zM32.36 61.96c4.751-0.141 4.103-16.594-0.72-15.12C27.843 48.001 28.048 62.088 32.36 61.96zM72.92 59.8c4.796-0.21 4.04-14.687-0.96-12.96C68.407 48.067 68.26 60.004 72.92 59.8zM55.64 78.04c2.686-5.315 5.897-10.104 8.641-15.36-5.681 0.16-12-0.319-17.28 0.24C50.132 67.708 52.521 73.24 55.64 78.04z" fill="#ff0000" data-fill-palette-color="accent"></path><path fill-rule="evenodd" clip-rule="evenodd" d="M47 92.68c-3.04 0-6.08 0-9.12 0 5.233-1.309 9.748-3.471 13.681-6.479 0.828-0.634 3.181-3.151 3.6-3.12-0.026-0.002 2.421 2.446 2.64 2.64 3.234 2.859 6.17 4.809 10.32 6C61.367 92.327 53.867 92.188 47 92.68z" fill="#ff0000" data-fill-palette-color="accent"></path></g></g></svg></g></g></svg></g><defs></defs></svg><rect width="395.52" height="247.2" fill="none" stroke="none" visibility="hidden"></rect></g></svg></g></svg>