<svg viewBox="0 0 395.52 247.2" height="247.2" width="395.52" data-background-color="#ffffff" preserveAspectRatio="xMidYMid meet" id="tight-bounds" xmlns="http://www.w3.org/2000/svg" xmlns:xlink="http://www.w3.org/1999/xlink"><g><svg viewBox="0 0 395.52 247.2" height="247.2" width="395.52"><g transform="matrix(1,0,0,1,0,98.39075547988934)"><svg viewBox="0 0 395.52 50.418489040221324" height="50.418489040221324" width="395.52"><g><svg viewBox="0 0 395.52 50.418489040221324" height="50.418489040221324" width="395.52"><g><svg viewBox="0 0 395.52 50.418489040221324" height="50.418489040221324" width="395.52"><g id="textblocktransform"><svg viewBox="0 0 395.52 50.418489040221324" height="50.418489040221324" width="395.52" id="textblock"><g><svg viewBox="0 0 395.52 50.418489040221324" height="50.418489040221324" width="395.52"><g transform="matrix(1,0,0,1,0,0)"><svg width="395.52" viewBox="4 -29.450000762939453 234.94000244140625 29.950000762939453" height="50.418489040221324" data-palette-color="#0063db"><g class="wordmark-text-0" data-fill-palette-color="primary" id="text-0"><path d="M36.35 0.5L36.35 0.5Q33.9 0.5 31.6-0.5 29.3-1.5 27.55-3.2L27.55-3.2Q26.65-4.1 25.75-5 24.85-5.9 23.95-6.8L23.95-6.8Q22.05-8.7 19.93-9.83 17.8-10.95 14.6-10.95L14.6-10.95 14.1-10.95 14.1 0 4.5 0 4.5-25.4 4-29.4 14.1-29.4 14.1-17.85 15.6-17.85Q16.45-17.85 16.93-18.07 17.4-18.3 17.95-18.9L17.95-18.9Q19.15-20.2 20.63-22.08 22.1-23.95 23.53-25.93 24.95-27.9 25.95-29.4L25.95-29.4 38.2-29.4 36.15-26.4Q34.9-25.05 33.38-23.45 31.85-21.85 30.35-20.33 28.85-18.8 27.6-17.55 26.35-16.3 25.6-15.6L25.6-15.6Q27.15-14.95 28.3-14.13 29.45-13.3 30.8-12.25L30.8-12.25Q32.05-11.3 32.98-10.5 33.9-9.7 35.2-8.7L35.2-8.7Q37.9-6.6 39.88-6.08 41.85-5.55 42.4-5.55L42.4-5.55 40.4 0Q39.9 0.15 38.83 0.33 37.75 0.5 36.35 0.5ZM75.2 0L46.9 0 46.9-29.4 79-29.4 79-22.6 56.65-22.6 56.65-18.45 73.2-18.45 73.2-11.5 56.65-11.5 56.65-6.85 78.2-6.85 81.2-0.55Q81.2-0.35 79.85-0.18 78.5 0 75.2 0L75.2 0ZM96.45 0L86.7 0 86.7-25.4 86.2-29.45 109.35-29.45Q112.7-29.45 114.72-28.73 116.75-28 117.77-26.78 118.8-25.55 119.12-23.93 119.45-22.3 119.45-20.5L119.45-20.5 119.45-16.55Q119.45-14.15 118.67-12.13 117.9-10.1 115.82-8.88 113.75-7.65 109.85-7.65L109.85-7.65 106.4-7.65Q103.25-7.65 100.52-7.8 97.8-7.95 96.45-8.05L96.45-8.05 96.45 0ZM96.45-22.55L96.45-14.45 106.8-14.45Q108.45-14.45 109.1-15.1 109.75-15.75 109.75-17.2L109.75-17.2 109.75-19.75Q109.75-21.2 109.15-21.88 108.55-22.55 106.85-22.55L106.85-22.55 96.45-22.55ZM151.24 0L126.44 0 126.94-4 126.94-29.4 136.54-29.4 136.54-6.85 154.24-6.85 157.24-0.55Q157.24-0.35 155.89-0.18 154.54 0 151.24 0L151.24 0ZM189.54 0L161.24 0 161.24-29.4 193.34-29.4 193.34-22.6 170.99-22.6 170.99-18.45 187.54-18.45 187.54-11.5 170.99-11.5 170.99-6.85 192.54-6.85 195.54-0.55Q195.54-0.35 194.19-0.18 192.84 0 189.54 0L189.54 0ZM232.99 0.5L232.99 0.5Q230.99 0.5 228.54-0.13 226.09-0.75 223.69-3.2L223.69-3.2 221.59-5.3Q220.09-6.8 218.71-7.75 217.34-8.7 215.59-9.18 213.84-9.65 211.19-9.65L211.19-9.65 210.79-9.65 210.79 0 201.04 0 201.04-25.4 200.54-29.45 223.69-29.45Q226.89-29.45 228.86-28.68 230.84-27.9 231.91-26.63 232.99-25.35 233.39-23.75 233.79-22.15 233.79-20.5L233.79-20.5 233.79-19.55Q233.79-16.55 232.26-14.18 230.74-11.8 227.44-10.8L227.44-10.8Q228.69-10.05 229.81-9.28 230.94-8.5 232.39-7.65L232.39-7.65Q234.04-6.7 235.46-6.28 236.89-5.85 237.84-5.75 238.79-5.65 238.94-5.65L238.94-5.65 237.44 0Q236.84 0.15 235.61 0.33 234.39 0.5 232.99 0.5ZM216.59-16.3L216.59-16.3Q217.84-16.3 219.01-16.35 220.19-16.4 221.14-16.5L221.14-16.5Q222.84-16.7 223.46-17.57 224.09-18.45 224.09-19.7L224.09-19.7 224.09-20.25Q224.09-21.35 223.46-21.95 222.84-22.55 221.19-22.55L221.19-22.55 210.79-22.55 210.79-16.5Q212.04-16.45 213.54-16.38 215.04-16.3 216.59-16.3Z" fill="#0063db" data-fill-palette-color="primary"></path></g></svg></g></svg></g></svg></g></svg></g></svg></g></svg></g></svg></g><defs></defs></svg>